{"glyphs":{":":{"x_min":0,"x_max":279,"ha":279,"o":"m 139 472 b 107 451 73 413 48 375 b 72 338 106 304 150 278 b 181 304 213 336 238 373 b 210 414 183 440 139 472 z m 138 175 b 106 156 72 117 46 78 b 72 40 106 7 148 -18 b 181 8 212 40 236 77 b 209 116 182 142 138 175 z"},"$":{"x_min":0,"x_max":547,"ha":547,"o":"m 320 589 l 320 666 b 295 663 273 655 252 643 l 252 575 b 221 565 193 550 166 532 b 100 485 84 430 84 387 b 84 338 108 305 150 282 b 183 263 219 251 252 242 l 252 111 b 211 111 162 121 143 127 b 113 95 86 57 67 16 b 92 5 154 -11 203 -11 b 220 -11 236 -11 252 -9 l 252 -89 b 277 -86 298 -78 320 -66 l 320 6 b 352 16 381 31 407 51 b 473 99 489 155 489 200 b 489 250 464 285 423 308 b 396 323 358 337 320 349 l 320 472 b 325 472 331 472 336 472 b 365 472 392 469 413 462 b 425 479 466 540 473 568 b 436 584 401 590 351 590 b 340 590 330 590 320 589 z m 252 468 l 252 371 b 234 377 218 383 204 389 b 179 401 156 420 171 434 b 192 454 219 464 252 468 z m 320 117 l 320 224 b 339 219 356 214 369 207 b 394 196 414 171 399 150 b 388 135 356 123 320 117 z"},"?":{"x_min":0,"x_max":409,"ha":409,"o":"m 46 494 b 129 505 220 504 238 462 b 258 416 165 379 159 312 b 156 274 178 239 222 217 b 255 239 281 265 299 293 b 293 303 278 326 281 347 b 289 401 371 417 372 505 b 372 553 332 614 240 630 b 206 636 171 637 139 637 b 95 593 70 552 46 494 z m 213 177 b 182 161 150 122 122 80 b 148 41 183 8 224 -17 b 257 6 287 39 312 78 b 283 119 256 147 213 177 z"},"<":{"x_min":0,"x_max":418,"ha":418,"o":"m 25 228 l 332 41 b 358 68 379 103 388 142 l 161 277 l 358 403 b 376 446 382 486 381 525 l 50 311 b 36 283 28 256 25 228 z"},"'":{"x_min":0,"x_max":195,"ha":195,"o":"m 57 573 b 84 477 57 407 25 325 b 31 320 49 309 56 310 b 185 395 230 573 168 667 b 123 640 89 611 57 573 z"},"=":{"x_min":0,"x_max":639,"ha":639,"o":"m 128 231 b 112 201 102 168 94 133 l 511 133 b 526 161 537 194 545 231 z m 128 410 b 112 380 102 346 94 312 l 511 312 b 526 340 537 372 545 410 z"},"a":{"x_min":0,"x_max":453,"ha":453,"o":"m 286 48 l 297 0 l 445 0 l 445 37 l 401 41 l 390 52 l 390 268 b 390 375 351 416 234 416 b 124 416 52 367 52 319 b 52 297 66 288 91 288 l 168 288 l 168 367 b 182 370 195 372 208 372 b 262 372 287 345 287 285 l 287 260 b 112 221 33 197 33 101 b 33 38 78 -8 142 -8 b 188 -8 232 12 286 48 z m 286 82 b 253 65 227 57 205 57 b 167 57 143 81 143 119 b 143 174 188 196 286 218 z"},"L":{"x_min":0,"x_max":452,"ha":452,"o":"m 22 0 l 443 0 l 443 163 l 382 163 l 369 62 l 358 48 l 198 48 l 198 502 l 212 514 l 262 518 l 262 559 l 22 559 l 22 518 l 76 514 l 88 502 l 88 58 l 73 45 l 22 41 z"},"3":{"x_min":0,"x_max":441,"ha":441,"o":"m 129 588 b 101 554 79 508 63 453 b 119 470 202 490 234 440 b 257 405 219 362 150 355 b 134 323 127 284 126 245 b 207 250 248 250 280 225 b 316 197 309 150 270 131 b 213 101 142 156 126 164 b 87 127 56 81 33 30 b 62 7 126 -11 167 -10 b 247 -7 301 23 350 82 b 402 143 418 213 402 280 b 391 328 346 365 307 365 b 335 389 358 416 365 449 b 373 490 364 533 332 562 b 280 610 169 613 129 588 z"},";":{"x_min":0,"x_max":276,"ha":276,"o":"m 72 77 b 107 -16 87 -88 62 -173 b 69 -177 87 -186 94 -185 b 215 -89 245 93 174 181 b 132 150 101 118 72 77 z m 136 471 b 102 451 68 412 44 374 b 71 335 105 301 147 278 b 179 301 209 334 234 372 b 205 416 178 443 136 471 z"},"J":{"x_min":0,"x_max":388,"ha":388,"o":"m 213 502 l 213 218 b 213 96 191 38 115 38 b 111 38 106 39 102 39 l 90 50 l 71 160 l 10 160 l 10 10 b 51 -3 90 -10 129 -10 b 265 -10 322 62 322 218 l 322 502 l 336 514 l 387 518 l 387 559 l 142 559 l 142 518 l 200 514 z"},"V":{"x_min":0,"x_max":529,"ha":529,"o":"m -18 559 l -18 518 l 38 508 l 227 -2 l 311 -2 l 496 508 l 550 518 l 550 559 l 368 559 l 368 518 l 418 514 l 427 502 l 292 122 l 154 502 l 163 514 l 212 518 l 212 559 z"},"\"":{"x_min":0,"x_max":404,"ha":404,"o":"m 57 572 b 84 477 57 407 25 324 b 30 320 48 309 56 309 b 185 394 230 573 168 667 b 125 644 85 611 57 572 z m 266 573 b 293 477 266 407 234 325 b 239 319 256 308 264 310 b 394 395 439 573 377 667 b 332 642 292 610 266 573 z"},"7":{"x_min":0,"x_max":448,"ha":448,"o":"m 147 632 b 99 577 62 515 33 443 l 306 443 b 226 325 146 236 118 157 b 95 94 89 18 105 -16 b 163 8 210 42 252 90 b 242 139 269 224 311 297 b 366 393 435 481 435 584 l 177 584 b 154 584 156 610 147 632 z"},"S":{"x_min":0,"x_max":473,"ha":473,"o":"m 49 18 b 101 0 157 -9 210 -9 b 347 -9 431 62 431 162 b 431 211 404 256 356 287 b 307 318 262 331 237 347 b 192 373 169 398 169 437 b 169 482 207 516 268 516 b 294 516 313 512 328 504 l 340 492 l 354 406 l 414 406 l 414 541 b 362 559 309 569 258 569 b 138 569 61 498 61 405 b 61 364 81 323 119 291 b 156 260 195 246 228 229 b 288 199 318 169 318 124 b 318 78 278 45 210 45 b 184 45 160 49 137 57 l 126 69 l 112 169 l 49 169 z"},"}":{"x_min":0,"x_max":411,"ha":411,"o":"m 52 588 l 52 545 b 133 542 155 517 155 441 l 155 388 b 155 301 189 258 275 242 b 192 229 154 184 154 99 l 154 38 b 154 -40 137 -67 52 -68 l 52 -112 b 60 -112 68 -112 77 -112 b 204 -112 250 -73 250 42 l 250 110 b 250 191 274 219 348 219 l 364 219 l 364 267 b 358 267 352 266 346 266 b 273 266 251 296 251 373 l 251 443 b 251 551 200 588 69 588 z"},"Z":{"x_min":0,"x_max":493,"ha":493,"o":"m 52 559 l 52 412 l 111 412 l 124 501 l 140 511 l 328 511 l 37 46 l 37 0 l 458 0 l 458 162 l 398 162 l 383 61 l 375 49 l 162 49 l 453 513 l 453 559 z"},"x":{"x_min":0,"x_max":442,"ha":442,"o":"m 12 406 l 12 368 l 59 361 l 175 195 l 58 46 l 9 37 l 9 0 l 171 0 l 171 37 l 128 45 l 207 160 l 280 48 l 277 40 l 248 32 l 248 0 l 442 0 l 442 37 l 398 44 l 274 223 l 381 362 l 427 368 l 427 406 l 273 406 l 273 369 l 316 362 l 243 258 l 177 357 l 181 366 l 212 371 l 212 406 z"},")":{"x_min":0,"x_max":348,"ha":348,"o":"m 171 -64 b 313 190 339 423 118 622 b 89 585 66 539 54 494 b 220 274 182 167 33 -104 b 75 -96 135 -83 171 -64 z"},"&":{"x_min":0,"x_max":618,"ha":618,"o":"m 264 330 b 214 377 186 412 186 452 b 186 493 215 522 253 522 b 296 522 323 489 323 434 b 323 391 305 361 264 330 z m 296 301 b 380 328 420 373 420 442 b 420 515 358 570 259 570 b 154 570 84 510 84 429 b 84 381 109 338 160 298 b 82 272 44 224 44 154 b 44 61 116 -10 219 -10 b 282 -10 340 13 393 60 l 428 20 l 428 0 l 603 0 l 603 40 l 534 46 l 458 129 b 491 168 516 213 534 268 l 592 279 l 592 318 l 418 318 l 418 279 l 462 272 l 472 258 b 465 225 450 193 427 163 z m 194 270 l 361 93 b 333 69 304 58 272 58 b 199 58 149 110 149 188 b 149 219 165 248 194 270 z"},"_":{"x_min":0,"x_max":417,"ha":417,"o":"m 417 -127 l 0 -127 l 0 -197 l 417 -197 z"},"v":{"x_min":0,"x_max":428,"ha":428,"o":"m -5 406 l -5 368 l 45 362 l 178 0 l 253 0 l 397 362 l 445 368 l 445 406 l 287 406 l 287 368 l 329 363 l 336 352 l 241 109 l 154 352 l 163 363 l 207 368 l 207 406 z"},"O":{"x_min":0,"x_max":627,"ha":627,"o":"m 34 282 b 34 105 148 -13 321 -13 b 391 -13 458 12 508 60 b 567 114 598 189 598 278 b 598 372 562 452 498 507 b 448 550 387 572 315 572 b 238 572 172 548 120 499 b 63 447 34 373 34 282 z m 317 518 b 408 518 472 429 472 275 b 472 128 407 38 315 38 b 226 38 158 128 158 281 b 158 430 224 518 317 518 z"},"(":{"x_min":0,"x_max":362,"ha":362,"o":"m 203 584 b 54 334 22 102 237 -103 b 268 -67 292 -22 305 23 b 145 248 186 353 341 621 b 299 614 239 602 203 584 z"},"C":{"x_min":0,"x_max":532,"ha":532,"o":"m 501 20 l 501 163 l 441 163 l 420 62 l 408 50 b 388 45 371 42 357 42 b 232 42 157 131 157 280 b 157 428 232 515 346 515 b 368 515 389 511 412 502 l 423 488 l 439 399 l 501 399 l 501 538 b 445 558 388 569 331 569 b 244 569 173 543 121 492 b 64 438 34 364 34 279 b 34 172 86 79 172 28 b 213 3 266 -10 326 -10 b 387 -10 445 0 501 20 z"},"W":{"x_min":0,"x_max":788,"ha":788,"o":"m 189 0 l 270 0 l 397 427 l 526 0 l 607 0 l 734 507 l 787 518 l 787 559 l 605 559 l 605 518 l 660 508 l 670 497 l 582 147 l 459 559 l 375 559 l 255 156 l 162 502 l 168 513 l 220 519 l 220 559 l 2 559 l 2 518 l 54 507 z"},"A":{"x_min":0,"x_max":542,"ha":542,"o":"m 229 565 l 41 48 l -9 41 l -9 0 l 170 0 l 170 41 l 118 47 l 109 58 l 159 198 l 341 198 l 391 57 l 385 46 l 332 41 l 332 0 l 558 0 l 558 41 l 508 49 l 317 565 z m 248 451 l 322 245 l 175 245 z"},"f":{"x_min":0,"x_max":284,"ha":284,"o":"m 26 0 l 251 0 l 251 38 l 195 42 l 182 55 l 182 345 l 293 345 l 293 395 l 182 395 l 182 445 l 182 452 b 182 513 192 556 214 578 l 295 507 b 327 518 343 536 343 558 b 343 594 313 619 265 619 b 231 619 195 608 164 584 b 107 542 79 482 79 402 l 25 377 l 25 345 l 79 345 l 79 56 l 68 42 l 26 38 z"},"Q":{"x_min":0,"x_max":627,"ha":627,"o":"m 378 -2 b 512 22 600 132 600 277 b 600 372 563 452 498 508 b 448 552 387 572 312 572 b 214 572 128 526 81 452 b 49 402 32 345 32 280 b 32 128 122 17 261 -5 l 261 -8 b 261 -104 315 -148 430 -148 b 469 -148 514 -142 568 -131 l 568 -88 b 540 -95 514 -98 491 -98 b 417 -98 381 -68 378 -2 z m 158 282 b 158 431 223 518 313 518 b 406 518 473 429 473 279 b 473 130 408 42 319 42 b 228 42 158 132 158 282 z"},"w":{"x_min":0,"x_max":666,"ha":666,"o":"m -1 406 l -1 368 l 49 362 l 157 0 l 240 0 l 339 299 l 432 0 l 516 0 l 629 362 l 676 368 l 676 406 l 518 406 l 518 368 l 562 362 l 568 351 l 495 110 l 404 406 l 321 406 l 223 110 l 156 350 l 165 362 l 206 368 l 206 406 z"},"-":{"x_min":0,"x_max":415,"ha":415,"o":"m 50 181 l 324 181 b 350 217 369 265 378 315 l 102 315 b 73 269 58 227 50 181 z"},"E":{"x_min":0,"x_max":497,"ha":497,"o":"m 24 0 l 472 0 l 472 149 l 415 149 l 401 61 l 390 48 l 197 48 l 197 264 l 305 264 l 317 252 l 325 192 l 374 192 l 374 386 l 325 386 l 317 326 l 305 314 l 197 314 l 197 512 l 362 512 l 373 502 l 386 428 l 444 428 l 444 559 l 24 559 l 24 518 l 75 514 l 88 502 l 88 58 l 75 45 l 24 41 z"},"s":{"x_min":0,"x_max":372,"ha":372,"o":"m 329 396 b 287 410 245 417 203 417 b 101 417 40 364 40 292 b 40 242 72 213 133 182 b 198 150 243 142 243 97 b 243 60 218 37 172 37 b 148 37 124 42 102 54 l 94 63 l 85 135 l 34 135 l 34 12 b 86 -2 132 -9 172 -9 b 279 -9 342 44 342 128 b 342 188 294 211 220 247 b 171 271 142 285 142 320 b 142 351 165 370 206 370 b 225 370 243 365 261 357 l 271 348 l 279 285 l 329 285 z"},">":{"x_min":0,"x_max":418,"ha":418,"o":"m 405 318 l 98 505 b 72 478 51 442 42 404 l 273 266 l 70 136 b 52 93 48 60 49 21 l 380 235 b 394 263 402 290 405 318 z"},"l":{"x_min":0,"x_max":253,"ha":253,"o":"m 19 0 l 242 0 l 242 37 l 194 42 l 182 55 l 182 616 l 145 616 l 19 576 l 19 543 l 79 543 l 79 53 l 68 42 l 19 37 z"},"8":{"x_min":0,"x_max":461,"ha":461,"o":"m 189 252 b 245 213 323 173 328 136 b 332 102 298 78 256 84 b 222 90 191 111 172 147 b 154 180 165 225 189 252 z m 270 364 b 226 389 187 421 178 444 b 166 477 182 499 202 513 b 238 518 294 488 304 442 b 309 420 303 396 270 364 z m 218 600 b 118 565 68 497 66 426 b 64 354 93 329 133 289 b 97 249 51 219 50 139 b 49 38 131 -14 217 -12 b 349 -10 419 79 424 173 b 428 256 373 298 329 324 b 366 354 428 414 413 495 b 398 582 313 609 218 600 z"},"\\":{"x_min":0,"x_max":452,"ha":452,"o":"m 151 606 b 107 613 60 614 18 606 b 150 355 197 231 302 -29 b 343 -37 388 -37 433 -29 b 310 206 242 372 151 606 z"},"e":{"x_min":0,"x_max":437,"ha":437,"o":"m 409 103 b 361 72 316 58 272 58 b 189 58 138 114 138 210 l 138 212 l 410 212 l 410 228 b 410 348 346 417 237 417 b 117 417 31 329 31 202 b 31 76 112 -8 237 -8 b 295 -8 353 9 409 42 z m 301 257 l 142 257 b 144 329 178 371 228 371 b 274 371 301 335 301 266 z"},"b":{"x_min":0,"x_max":481,"ha":481,"o":"m 131 616 l 8 577 l 8 544 l 68 544 l 68 1 l 160 -1 l 182 -1 b 247 -1 293 6 324 19 b 410 58 456 129 456 226 b 456 338 387 415 292 415 b 255 415 216 402 171 378 l 171 616 z m 171 45 l 171 343 b 191 348 208 350 223 350 b 300 350 344 299 344 204 b 344 95 298 44 198 44 b 189 44 180 44 171 45 z"},"%":{"x_min":0,"x_max":664,"ha":664,"o":"m 463 233 b 477 238 511 239 530 169 b 540 136 545 113 541 86 b 540 75 535 56 517 70 b 504 80 492 102 484 123 b 468 168 460 213 463 233 z m 480 336 b 430 298 393 267 387 151 b 382 57 413 -16 495 -18 b 570 -21 612 75 614 167 b 619 325 545 346 480 336 z m 127 490 b 141 495 175 496 194 426 b 203 393 209 370 205 343 b 203 332 198 313 181 327 b 168 337 156 359 148 380 b 132 425 124 470 127 490 z m 144 592 b 94 555 57 524 50 408 b 46 314 77 241 159 239 b 234 236 276 332 278 424 b 283 582 209 603 144 592 z m 452 592 b 327 370 237 212 80 -11 b 125 -18 170 -19 212 -11 b 353 236 417 353 584 592 b 543 599 497 599 452 592 z"},"m":{"x_min":0,"x_max":743,"ha":743,"o":"m 418 358 b 395 397 362 417 320 417 b 283 417 240 398 183 364 l 183 413 l 143 413 l 26 374 l 26 341 l 80 341 l 80 53 l 68 41 l 26 38 l 26 0 l 230 0 l 230 38 l 195 41 l 183 53 l 183 328 b 210 338 233 343 253 343 b 307 343 328 316 328 258 l 328 55 l 317 41 l 282 38 l 282 0 l 479 0 l 479 37 l 442 41 l 430 53 l 430 327 b 458 337 481 342 502 342 b 557 342 578 315 578 252 l 578 53 l 567 41 l 531 38 l 531 0 l 736 0 l 736 38 l 692 41 l 681 53 l 681 277 b 681 369 642 415 565 415 b 534 415 484 397 418 358 z"},"#":{"x_min":0,"x_max":613,"ha":613,"o":"m 244 606 b 233 550 223 498 212 447 l 126 447 b 109 417 99 384 92 349 l 190 349 b 181 312 172 276 162 239 l 76 239 b 59 209 49 176 42 141 l 133 141 b 116 87 96 31 73 -29 b 120 -37 157 -35 198 -29 b 211 34 223 90 234 141 l 335 141 b 318 87 299 31 276 -29 b 322 -37 359 -35 400 -29 b 414 34 425 90 437 141 l 517 141 b 531 169 543 202 551 239 l 459 239 b 468 276 477 312 487 349 l 567 349 b 581 377 593 410 601 447 l 517 447 b 532 496 551 547 573 606 b 531 613 484 614 447 606 b 436 550 426 498 415 447 l 314 447 b 330 496 348 547 370 606 b 328 613 281 614 244 606 z m 393 349 b 384 312 375 276 364 239 l 256 239 b 265 276 274 312 284 349 z"},",":{"x_min":0,"x_max":235,"ha":235,"o":"m 54 77 b 90 -16 69 -88 44 -173 b 51 -177 69 -186 76 -185 b 197 -89 227 93 157 181 b 115 150 83 118 54 77 z"},"n":{"x_min":0,"x_max":504,"ha":504,"o":"m 26 0 l 232 0 l 232 38 l 195 41 l 183 53 l 183 328 b 215 338 242 342 262 342 b 315 342 338 314 338 252 l 338 53 l 326 41 l 290 38 l 290 0 l 494 0 l 494 38 l 450 41 l 439 53 l 439 277 b 439 369 402 415 326 415 b 289 415 242 397 183 364 l 183 413 l 143 413 l 23 374 l 23 341 l 80 341 l 80 53 l 68 41 l 26 38 z"},"h":{"x_min":0,"x_max":498,"ha":498,"o":"m 137 616 l 13 577 l 13 544 l 74 544 l 74 53 l 62 41 l 20 38 l 20 0 l 226 0 l 226 38 l 189 41 l 177 53 l 177 328 b 208 338 235 342 257 342 b 308 342 332 314 332 252 l 332 53 l 320 41 l 284 38 l 284 0 l 488 0 l 488 38 l 444 41 l 433 53 l 433 277 b 433 369 396 415 319 415 b 282 415 237 397 177 364 l 177 616 z"},"z":{"x_min":0,"x_max":412,"ha":412,"o":"m 38 0 l 388 0 l 388 137 l 331 137 l 321 60 l 308 47 l 154 47 l 375 362 l 375 405 l 45 405 l 45 279 l 99 279 l 108 348 l 118 360 l 253 360 l 38 52 z"},"B":{"x_min":0,"x_max":523,"ha":523,"o":"m 24 559 l 24 518 l 73 514 l 87 502 l 87 58 l 73 45 l 24 41 l 24 0 l 282 0 b 418 0 492 58 492 163 b 492 245 438 296 340 298 b 419 318 459 363 459 428 b 459 515 398 559 274 559 z m 195 311 l 195 512 b 207 513 218 514 228 514 b 307 514 344 483 344 418 b 344 343 304 310 218 310 b 210 310 202 310 195 311 z m 195 48 l 195 262 b 218 264 237 264 250 264 b 333 264 375 229 375 158 b 375 78 332 46 235 46 b 222 46 209 47 195 48 z"},"K":{"x_min":0,"x_max":542,"ha":542,"o":"m 25 0 l 262 0 l 262 41 l 212 45 l 199 58 l 199 245 l 248 245 l 388 29 l 388 0 l 560 0 l 560 41 l 500 46 l 322 323 l 481 512 l 539 518 l 539 559 l 352 559 l 352 518 l 398 514 l 403 503 l 222 284 l 199 284 l 199 502 l 212 514 l 262 518 l 262 559 l 25 559 l 25 518 l 76 514 l 88 502 l 88 58 l 76 45 l 25 41 z"},"R":{"x_min":0,"x_max":559,"ha":559,"o":"m 26 559 l 26 518 l 75 514 l 88 502 l 88 58 l 75 45 l 26 41 l 26 0 l 261 0 l 261 41 l 210 45 l 197 58 l 197 246 l 211 246 b 295 246 317 210 342 131 b 356 91 363 53 407 20 b 427 4 458 -6 493 -6 b 519 -6 548 -3 577 1 l 577 41 l 566 41 b 510 41 485 53 468 99 b 452 141 445 186 419 222 b 400 249 372 265 332 274 b 426 292 475 340 475 417 b 475 509 408 559 279 559 z m 197 512 l 235 512 b 316 512 358 473 358 405 b 358 328 316 293 227 293 b 218 293 208 293 197 294 z"},"T":{"x_min":0,"x_max":502,"ha":502,"o":"m 13 559 l 13 412 l 71 412 l 84 501 l 98 512 l 198 512 l 198 58 l 183 45 l 129 41 l 129 0 l 378 0 l 378 41 l 324 45 l 310 58 l 310 512 l 410 512 l 422 501 l 437 412 l 494 412 l 494 559 z"},"P":{"x_min":0,"x_max":489,"ha":489,"o":"m 24 0 l 270 0 l 270 41 l 211 45 l 198 58 l 198 208 b 223 207 242 206 255 206 b 395 206 473 276 473 391 b 473 511 400 559 246 559 l 21 559 l 21 518 l 76 514 l 88 502 l 88 58 l 73 45 l 24 41 z m 198 256 l 198 511 l 242 511 b 318 511 358 467 358 388 b 358 299 315 254 228 254 b 219 254 209 255 198 256 z"},"|":{"x_min":0,"x_max":417,"ha":417,"o":"m 245 637 l 172 637 l 172 -197 l 245 -197 z"},"t":{"x_min":0,"x_max":298,"ha":298,"o":"m 70 345 l 70 102 b 70 60 71 33 100 14 b 119 1 142 -4 169 -4 b 203 -4 247 4 297 22 l 297 62 b 280 58 262 57 242 57 b 188 57 173 78 173 138 l 173 345 l 297 345 l 297 395 l 173 395 l 173 498 l 121 498 l 78 412 l 16 377 l 16 345 z"},"M":{"x_min":0,"x_max":736,"ha":736,"o":"m 21 0 l 210 0 l 210 41 l 158 47 l 146 62 l 146 502 l 315 0 l 375 0 l 548 506 l 548 58 l 540 45 l 488 41 l 488 0 l 719 0 l 719 41 l 662 45 l 653 58 l 653 502 l 662 514 l 719 519 l 719 559 l 498 559 l 498 535 l 369 153 l 239 536 l 239 559 l 21 559 l 21 519 l 76 514 l 86 503 l 86 62 l 74 47 l 21 41 z"},"g":{"x_min":0,"x_max":459,"ha":459,"o":"m 339 390 b 298 407 260 414 224 414 b 113 414 46 356 46 271 b 46 211 82 165 149 146 b 118 118 103 94 103 67 b 103 55 107 41 114 25 b 61 20 28 -15 28 -67 b 28 -135 91 -181 201 -181 b 335 -181 425 -112 425 -33 b 425 38 363 62 242 80 l 186 88 b 184 96 183 103 183 110 b 183 120 186 130 190 141 b 198 140 207 140 214 140 b 324 140 391 198 391 278 b 391 300 385 321 372 342 l 462 342 l 462 390 z m 222 375 b 259 375 288 339 288 279 b 288 216 260 178 221 178 b 181 178 152 215 152 278 b 152 339 181 375 222 375 z m 165 16 l 236 4 b 295 -6 326 -18 326 -58 b 326 -101 287 -137 227 -137 b 171 -137 130 -98 130 -53 b 130 -27 142 -3 165 16 z"},"j":{"x_min":0,"x_max":248,"ha":248,"o":"m 91 341 l 91 24 b 91 -58 84 -112 63 -141 l -18 -65 b -48 -71 -67 -93 -67 -120 b -67 -153 -38 -178 9 -178 b 62 -178 115 -153 148 -112 b 185 -63 192 -2 192 82 l 192 413 l 158 413 l 32 373 l 32 341 z m 78 541 b 78 504 106 479 139 479 b 173 479 202 506 202 540 b 202 577 175 603 141 603 b 103 603 78 578 78 541 z"},"i":{"x_min":0,"x_max":254,"ha":254,"o":"m 135 603 b 101 603 75 577 75 541 b 75 504 102 479 136 479 b 171 479 198 505 198 542 b 198 577 172 603 135 603 z m 144 413 l 27 374 l 27 341 l 82 341 l 82 53 l 70 41 l 25 38 l 25 0 l 243 0 l 243 38 l 197 41 l 184 53 l 184 413 z"},"y":{"x_min":0,"x_max":429,"ha":429,"o":"m -3 405 l -3 369 l 47 362 l 195 -10 b 174 -60 152 -94 130 -112 l 58 -62 b 30 -76 14 -97 14 -121 b 14 -152 45 -182 86 -182 b 141 -182 200 -128 241 -29 l 402 362 l 447 369 l 447 405 l 287 405 l 287 369 l 331 364 l 338 352 l 248 117 l 158 352 l 166 364 l 208 369 l 208 405 z"},"@":{"x_min":0,"x_max":764,"ha":764,"o":"m 444 368 l 474 324 l 444 158 b 419 124 394 106 368 106 b 329 106 308 136 308 194 b 308 297 362 370 428 370 b 433 370 439 369 444 368 z m 442 112 b 442 68 463 45 508 45 b 561 45 625 82 666 147 b 696 193 711 249 711 311 b 711 469 602 577 436 577 b 337 577 247 542 181 482 b 102 409 62 315 62 204 b 62 106 93 26 154 -33 b 218 -95 299 -128 390 -128 b 466 -128 552 -103 638 -54 l 623 -21 b 555 -61 483 -82 412 -82 b 241 -82 126 36 126 216 b 126 312 158 391 225 454 b 281 508 352 536 436 536 b 578 536 668 444 668 308 b 668 246 648 184 614 141 b 592 112 567 98 545 98 b 528 98 517 111 517 127 b 517 142 519 158 523 178 l 553 320 b 560 349 565 378 576 407 l 519 407 l 505 388 b 478 402 452 409 425 409 b 368 409 308 378 268 323 b 238 283 222 234 222 181 b 222 98 266 48 325 48 b 362 48 400 69 442 112 z"},".":{"x_min":0,"x_max":278,"ha":278,"o":"m 138 177 b 104 157 70 118 46 80 b 73 40 107 7 148 -17 b 180 7 211 40 236 78 b 207 121 180 149 138 177 z"},"p":{"x_min":0,"x_max":492,"ha":492,"o":"m 19 -182 l 242 -182 l 242 -144 l 190 -141 l 178 -129 l 178 4 b 205 1 228 -1 246 -1 b 381 -1 467 86 467 219 b 467 336 398 416 309 416 b 268 416 227 398 178 363 l 178 413 l 140 413 l 18 374 l 18 341 l 76 341 l 76 -128 l 64 -140 l 19 -144 z m 178 50 l 178 328 b 202 338 224 344 243 344 b 311 344 353 294 353 205 b 353 105 304 44 231 44 b 214 44 197 46 178 50 z"},"X":{"x_min":0,"x_max":531,"ha":531,"o":"m 12 559 l 12 519 l 64 511 l 216 271 l 53 48 l 0 40 l 0 0 l 192 0 l 192 40 l 138 45 l 133 59 l 252 224 l 353 58 l 348 47 l 295 40 l 295 0 l 537 0 l 537 40 l 481 51 l 321 302 l 476 512 l 528 519 l 528 559 l 341 559 l 341 519 l 387 513 l 394 502 l 286 349 l 191 504 l 198 515 l 248 519 l 248 559 z"},"*":{"x_min":0,"x_max":476,"ha":476,"o":"m 410 420 l 288 368 l 310 499 b 273 519 216 518 179 499 l 201 366 l 79 420 b 55 397 39 347 42 296 l 182 280 l 82 178 b 102 146 145 119 184 105 l 243 223 l 304 106 b 343 119 386 147 406 178 l 307 280 l 446 296 b 452 349 433 397 410 420 z"},"Y":{"x_min":0,"x_max":508,"ha":508,"o":"m -9 559 l -9 518 l 44 510 l 204 220 l 204 58 l 191 46 l 135 42 l 135 0 l 385 0 l 385 42 l 328 46 l 315 58 l 315 240 l 473 509 l 522 518 l 522 559 l 341 559 l 341 519 l 391 510 l 398 497 l 278 292 l 164 504 l 172 514 l 218 518 l 218 559 z"},"c":{"x_min":0,"x_max":397,"ha":397,"o":"m 387 38 l 387 97 b 346 72 307 59 271 59 b 193 59 142 118 142 218 b 142 313 193 373 252 373 b 258 373 264 372 272 371 l 272 282 b 288 272 303 267 322 267 b 358 267 382 291 382 323 b 382 374 330 414 244 414 b 119 414 29 325 29 198 b 29 78 108 -7 229 -7 b 282 -7 333 8 387 38 z"},"!":{"x_min":0,"x_max":298,"ha":298,"o":"m 150 177 b 117 157 83 118 58 80 b 85 40 120 7 161 -17 b 193 7 223 40 248 78 b 219 121 192 149 150 177 z m 87 538 b 84 430 89 302 132 228 b 155 239 188 272 204 296 b 215 355 213 455 220 627 b 175 611 122 574 87 538 z"},"/":{"x_min":0,"x_max":452,"ha":452,"o":"m 301 606 b 209 372 142 206 18 -29 b 64 -37 109 -37 150 -29 b 255 231 302 355 433 606 b 391 614 345 613 301 606 z"},"[":{"x_min":0,"x_max":416,"ha":416,"o":"m 203 548 l 322 548 b 354 583 377 624 388 669 l 177 669 b 144 627 127 591 108 538 l 108 -142 l 305 -142 b 333 -105 356 -67 367 -21 l 203 -21 z"},"6":{"x_min":0,"x_max":488,"ha":488,"o":"m 176 274 b 205 291 279 282 312 238 b 347 191 334 139 318 107 b 270 88 218 103 190 141 b 153 190 154 238 176 274 z m 203 554 b 203 554 106 363 85 320 b 56 260 36 167 63 91 b 89 21 169 -29 298 -4 b 369 36 419 90 441 170 b 456 224 453 293 430 332 b 409 368 379 395 344 396 b 312 397 264 383 220 363 b 273 440 346 530 388 604 b 324 598 257 580 203 554 z"},"r":{"x_min":0,"x_max":351,"ha":351,"o":"m 24 0 l 254 0 l 254 38 l 195 41 l 182 53 l 182 292 b 208 308 228 316 242 316 b 266 316 283 307 296 286 l 339 286 l 350 401 b 332 410 313 415 295 415 b 289 415 282 414 277 413 b 242 389 209 361 179 328 l 182 413 l 142 413 l 20 374 l 20 341 l 80 341 l 80 53 l 68 41 l 24 38 z"},"2":{"x_min":0,"x_max":424,"ha":424,"o":"m 117 584 b 87 546 67 505 56 457 b 114 479 170 484 213 461 b 241 446 270 392 224 329 b 183 273 107 226 72 140 b 51 88 47 51 46 0 l 333 0 b 364 42 387 100 396 148 l 171 148 b 199 208 285 255 340 327 b 401 408 393 491 353 543 b 302 611 188 614 117 584 z"},"{":{"x_min":0,"x_max":411,"ha":411,"o":"m 351 588 l 333 588 b 204 588 152 550 152 443 l 152 373 b 152 295 130 267 55 267 l 38 267 l 38 219 l 55 219 b 128 219 152 191 152 110 l 152 42 b 152 -73 198 -112 326 -112 b 334 -112 342 -112 351 -112 l 351 -68 b 267 -67 249 -41 249 38 l 249 99 b 249 184 211 229 128 242 b 212 257 248 301 248 388 l 248 441 b 248 516 268 542 351 545 z"},"9":{"x_min":0,"x_max":489,"ha":489,"o":"m 185 487 b 217 497 275 498 312 454 b 345 414 343 355 318 307 b 279 291 226 310 195 344 b 160 383 156 445 185 487 z m 199 593 b 136 556 92 514 64 440 b 27 343 65 214 169 194 b 213 204 245 212 278 222 b 220 133 139 38 113 -16 b 180 -11 241 6 295 35 b 354 136 380 191 413 259 b 448 332 472 434 443 499 b 396 604 289 613 199 593 z"}," ":{"x_min":0,"x_max":333,"ha":333,"o":""},"I":{"x_min":0,"x_max":295,"ha":295,"o":"m 25 0 l 274 0 l 274 41 l 218 45 l 205 58 l 205 502 l 218 514 l 274 518 l 274 559 l 25 559 l 25 518 l 80 514 l 93 502 l 93 58 l 80 45 l 25 41 z"},"H":{"x_min":0,"x_max":633,"ha":633,"o":"m 25 559 l 25 518 l 73 514 l 87 501 l 87 58 l 73 45 l 25 41 l 25 0 l 261 0 l 261 41 l 211 45 l 198 58 l 198 268 l 438 268 l 438 58 l 426 45 l 376 41 l 376 0 l 611 0 l 611 41 l 562 45 l 549 58 l 549 501 l 562 514 l 611 518 l 611 559 l 376 559 l 376 518 l 426 514 l 438 501 l 438 318 l 198 318 l 198 501 l 211 514 l 261 518 l 261 559 z"},"4":{"x_min":0,"x_max":482,"ha":482,"o":"m 261 460 l 261 257 l 134 257 b 129 340 194 427 261 460 z m 377 602 b 286 608 185 539 122 447 b 93 406 64 339 54 254 b 49 197 48 144 57 116 l 262 116 l 263 -21 b 304 2 342 38 364 76 l 364 116 l 415 116 b 444 161 463 209 470 257 l 367 257 l 367 496 b 367 515 381 558 377 602 z"},"~":{"x_min":0,"x_max":694,"ha":694,"o":"m 622 244 l 622 319 b 566 278 517 257 468 257 b 428 257 390 272 349 287 b 315 298 278 311 230 311 b 182 311 130 292 72 252 l 72 177 b 132 218 181 242 229 242 b 282 242 332 220 390 201 b 417 192 443 187 468 187 b 518 187 568 207 622 244 z"},"D":{"x_min":0,"x_max":597,"ha":597,"o":"m 268 559 l 24 559 l 24 518 l 75 514 l 88 501 l 88 58 l 75 45 l 24 41 l 24 0 l 268 0 b 351 0 413 12 465 52 b 532 104 568 181 568 279 b 568 454 461 559 268 559 z m 198 512 l 247 512 b 379 512 443 437 443 280 b 443 123 379 47 247 47 l 198 47 z"},"^":{"x_min":0,"x_max":833,"ha":833,"o":"m 460 595 l 372 595 l 168 365 l 210 365 l 416 527 l 622 365 l 664 365 z"},"0":{"x_min":0,"x_max":489,"ha":489,"o":"m 188 468 b 233 473 331 458 341 304 b 345 242 337 185 313 139 b 302 116 274 80 232 118 b 203 144 186 183 178 231 b 160 332 166 428 188 468 z m 216 598 b 130 532 65 480 55 280 b 47 117 100 -8 242 -12 b 371 -17 443 149 448 307 b 456 579 328 616 216 598 z"},"F":{"x_min":0,"x_max":460,"ha":460,"o":"m 25 0 l 271 0 l 271 41 l 212 45 l 198 58 l 198 252 l 310 252 l 322 242 l 330 181 l 379 181 l 379 375 l 330 375 l 322 314 l 310 303 l 198 303 l 198 511 l 359 511 l 370 500 l 382 419 l 440 419 l 440 559 l 22 559 l 22 518 l 75 514 l 88 502 l 88 58 l 75 45 l 25 41 z"},"`":{"x_min":0,"x_max":417,"ha":417,"o":"m 72 618 l 199 460 l 256 460 l 175 618 z"},"k":{"x_min":0,"x_max":461,"ha":461,"o":"m 21 0 l 231 0 l 231 37 l 189 40 l 178 52 l 178 188 l 219 188 l 316 32 l 316 0 l 476 0 l 476 37 l 427 41 l 294 256 l 389 362 l 443 368 l 443 405 l 273 405 l 273 368 l 310 364 l 316 355 l 197 216 l 178 216 l 178 616 l 143 616 l 15 577 l 15 544 l 76 544 l 76 53 l 64 41 l 21 37 z"},"u":{"x_min":0,"x_max":500,"ha":500,"o":"m 137 416 l 19 376 l 19 343 l 73 343 l 73 135 b 73 39 110 -8 188 -8 b 232 -8 275 12 328 46 l 328 0 l 485 0 l 485 38 l 442 41 l 430 53 l 430 416 l 392 416 l 273 376 l 273 343 l 328 343 l 328 78 b 300 69 277 64 256 64 b 198 64 177 92 177 158 l 177 416 z"},"]":{"x_min":0,"x_max":416,"ha":416,"o":"m 213 -21 l 94 -21 b 62 -56 39 -97 28 -142 l 239 -142 b 272 -100 290 -64 309 -11 l 309 669 l 111 669 b 83 632 60 594 49 548 l 213 548 z"},"U":{"x_min":0,"x_max":588,"ha":588,"o":"m 17 559 l 17 518 l 69 514 l 81 502 l 81 214 b 81 150 85 101 118 58 b 152 15 213 -10 296 -10 b 452 -10 516 58 516 210 l 516 499 l 528 513 l 578 518 l 578 559 l 389 559 l 389 518 l 442 513 l 455 499 l 455 218 b 455 108 421 56 328 56 b 228 56 192 103 192 211 l 192 502 l 204 514 l 256 518 l 256 559 z"},"o":{"x_min":0,"x_max":481,"ha":481,"o":"m 247 416 b 116 416 31 331 31 202 b 31 77 115 -7 240 -7 b 372 -7 456 78 456 201 b 456 333 374 416 247 416 z m 243 372 b 302 372 341 312 341 203 b 341 95 304 38 242 38 b 184 38 147 97 147 206 b 147 313 184 372 243 372 z"},"N":{"x_min":0,"x_max":606,"ha":606,"o":"m 22 0 l 212 0 l 212 40 l 160 47 l 147 62 l 147 448 l 435 0 l 528 0 l 528 498 l 542 513 l 592 520 l 592 559 l 402 559 l 402 520 l 452 513 l 468 498 l 468 141 l 212 537 l 212 559 l 21 559 l 21 518 l 74 514 l 86 502 l 86 62 l 71 47 l 22 40 z"},"+":{"x_min":0,"x_max":598,"ha":598,"o":"m 350 94 l 350 221 l 484 221 b 504 252 513 288 521 329 l 350 329 l 350 493 b 309 485 278 477 247 457 l 247 329 l 112 329 b 90 296 84 259 77 221 l 247 221 l 247 57 b 286 64 317 72 350 94 z"},"G":{"x_min":0,"x_max":592,"ha":592,"o":"m 332 275 l 332 234 l 393 230 l 407 218 l 407 48 b 385 47 369 46 361 46 b 232 46 154 133 154 283 b 154 429 231 516 355 516 b 379 516 402 512 424 502 l 437 488 l 452 399 l 513 399 l 513 541 b 452 559 392 568 338 568 b 152 568 33 454 33 283 b 33 110 152 -10 327 -10 b 388 -10 449 2 513 24 l 513 218 l 527 230 l 575 234 l 575 275 z"},"q":{"x_min":0,"x_max":479,"ha":479,"o":"m 424 405 b 374 412 332 416 294 416 b 125 416 31 332 31 191 b 31 75 101 -3 195 -3 b 232 -3 272 10 319 36 l 319 -128 l 307 -140 l 253 -143 l 253 -182 l 476 -182 l 476 -144 l 434 -141 l 422 -129 l 422 357 b 422 361 422 377 424 405 z m 319 366 l 319 68 b 297 64 277 62 261 62 b 188 62 143 114 143 208 b 143 312 191 370 278 370 b 291 370 304 368 319 366 z"},"d":{"x_min":0,"x_max":497,"ha":497,"o":"m 324 543 l 324 408 b 294 414 268 417 246 417 b 119 417 31 328 31 193 b 31 73 99 -8 192 -8 b 235 -8 277 12 324 47 l 324 0 l 480 0 l 480 37 l 438 40 l 426 53 l 426 616 l 388 616 l 263 577 l 263 543 z m 324 79 b 298 69 274 63 254 63 b 185 63 142 118 142 211 b 142 310 192 370 262 370 b 280 370 300 366 324 358 z"},"1":{"x_min":0,"x_max":446,"ha":446,"o":"m 296 606 b 208 585 112 534 47 473 b 90 464 120 453 162 431 b 183 421 192 407 192 383 l 192 148 l 110 148 b 82 106 55 50 42 0 l 347 0 b 379 44 403 96 417 148 l 296 148 z"},"5":{"x_min":0,"x_max":439,"ha":439,"o":"m 166 624 b 129 591 83 538 77 463 b 68 381 83 317 100 242 b 142 242 190 247 240 233 b 280 222 302 198 302 174 b 302 150 278 120 219 118 b 182 117 137 135 116 144 b 81 109 57 65 42 19 b 66 8 116 -12 180 -11 b 249 -10 313 18 360 102 b 406 183 408 264 365 317 b 317 376 227 373 171 371 b 162 398 162 428 173 453 l 340 453 b 371 488 396 533 411 584 l 186 584 b 176 596 171 607 166 624 z"}}}
